<?xml version="1.0" encoding="UTF-8" standalone="no"?>
<!DOCTYPE svg PUBLIC "-//W3C//DTD SVG 1.1//EN" "http://www.w3.org/Graphics/SVG/1.1/DTD/svg11.dtd">
<svg width="100%" height="100%" viewBox="0 0 2045 500" version="1.1" xmlns="http://www.w3.org/2000/svg" xmlns:xlink="http://www.w3.org/1999/xlink" xml:space="preserve" xmlns:serif="http://www.serif.com/" style="fill-rule:evenodd;clip-rule:evenodd;stroke-linejoin:round;stroke-miterlimit:2;">
    <g transform="matrix(1,0,0,1,-550,0)">
        <g id="Plan-de-travail2" serif:id="Plan de travail2" transform="matrix(4.089709,0,0,1,-1699.339876,0)">
            <rect x="550" y="0" width="500" height="500" style="fill:none;"/>
            <g transform="matrix(0.309159,0,0,1.264372,320.880844,154.614467)">
                <g transform="matrix(266.666667,0,0,266.666667,2319.708762,176.169806)">
                </g>
                <text x="1144.655px" y="176.17px" style="font-family:'CocogooseProTrial-Regular', 'CocogooseProTrial';font-size:266.667px;fill:rgb(29,99,205);stroke:black;stroke-width:0.79px;">S<tspan x="1313.257px 1592.54px " y="176.17px 176.17px ">WO</tspan>CHI</text>
            </g>
            <g transform="matrix(0.327337,0,0,1.430012,522.821251,-32.718547)">
                <path d="M392.04,267.935L347.282,307.202C342.702,311.219 336.491,313.476 330.015,313.476C323.539,313.476 317.327,311.219 312.748,307.202C308.169,303.184 305.596,297.735 305.596,292.053C305.596,288.176 306.793,284.408 309.009,281.129L279.255,307.233C269.718,315.599 254.257,315.599 244.721,307.233C237.078,300.527 235.56,290.483 240.169,282.452L211.922,307.233C202.386,315.599 186.925,315.599 177.389,307.233C167.852,298.866 167.852,285.302 177.388,276.936L208.505,249.636C198.991,255.397 185.855,254.564 177.389,247.136C167.852,238.77 167.852,225.205 177.388,216.839L208.122,189.876C198.641,195.386 185.742,194.477 177.389,187.148C167.852,178.782 167.852,165.217 177.388,156.851L248.747,94.247C249.158,91.138 250.752,88.223 253.3,85.987C256.283,83.37 260.329,81.9 264.548,81.9L391.283,81.9C395.502,81.9 399.548,83.37 402.531,85.987C405.514,88.604 407.19,92.154 407.19,95.855L407.19,253.995C407.19,257.696 405.514,261.246 402.531,263.863C399.727,266.323 395.983,267.77 392.04,267.935ZM287.08,230.9L270.094,230.9C269.261,230.9 268.461,231.19 267.872,231.707C267.283,232.224 266.952,232.926 266.952,233.657L266.952,249.295C266.952,250.027 267.283,250.728 267.872,251.245C268.461,251.762 269.261,252.052 270.094,252.052L287.08,252.052C287.913,252.052 288.713,251.762 289.302,251.245C289.891,250.728 290.222,250.027 290.222,249.295L290.222,233.657C290.222,232.926 289.891,232.224 289.302,231.707C288.713,231.19 287.913,230.9 287.08,230.9ZM352.367,230.9L335.381,230.9C334.548,230.9 333.749,231.19 333.159,231.707C332.57,232.224 332.239,232.926 332.239,233.657L332.239,249.295C332.239,250.027 332.57,250.728 333.159,251.245C333.749,251.762 334.548,252.052 335.381,252.052L352.367,252.052C353.201,252.052 354,251.762 354.589,251.245C355.178,250.728 355.509,250.027 355.509,249.295L355.509,233.657C355.509,232.926 355.178,232.224 354.589,231.707C354,231.19 353.201,230.9 352.367,230.9ZM385.476,97.798L367.56,97.798C366.85,97.798 366.169,98.046 365.667,98.486C365.165,98.927 364.883,99.524 364.883,100.147L364.883,116.601C364.883,117.224 365.165,117.822 365.667,118.262C366.169,118.703 366.85,118.95 367.56,118.95L385.476,118.95C386.186,118.95 386.867,118.703 387.369,118.262C387.871,117.822 388.153,117.224 388.153,116.601L388.153,100.147C388.153,99.524 387.871,98.927 387.369,98.486C386.867,98.046 386.186,97.798 385.476,97.798ZM287.545,97.798L269.629,97.798C268.919,97.798 268.238,98.046 267.736,98.486C267.234,98.927 266.952,99.524 266.952,100.147L266.952,116.601C266.952,117.224 267.234,117.822 267.736,118.262C268.238,118.703 268.919,118.95 269.629,118.95L287.545,118.95C288.255,118.95 288.936,118.703 289.438,118.262C289.94,117.822 290.222,117.224 290.222,116.601L290.222,100.147C290.222,99.524 289.94,98.927 289.438,98.486C288.936,98.046 288.255,97.798 287.545,97.798ZM320.188,97.798L302.273,97.798C301.563,97.798 300.882,98.046 300.38,98.486C299.878,98.927 299.595,99.524 299.595,100.147L299.595,116.601C299.595,117.224 299.878,117.822 300.38,118.262C300.882,118.703 301.563,118.95 302.273,118.95L320.188,118.95C320.899,118.95 321.58,118.703 322.082,118.262C322.584,117.822 322.866,117.224 322.866,116.601L322.866,100.147C322.866,99.524 322.584,98.927 322.082,98.486C321.58,98.046 320.899,97.798 320.188,97.798ZM383.999,127.827L271.832,127.827C269.338,127.827 267.315,129.601 267.315,131.79L267.315,218.061C267.315,220.249 269.338,222.024 271.832,222.024L383.999,222.024C386.494,222.024 388.516,220.249 388.516,218.061L388.516,131.79C388.516,129.601 386.494,127.827 383.999,127.827ZM327.734,144.426C345.715,144.426 360.313,158.092 360.313,174.925C360.313,191.758 345.715,205.424 327.734,205.424C309.753,205.424 295.155,191.758 295.155,174.925C295.155,158.092 309.753,144.426 327.734,144.426ZM352.832,97.798L334.916,97.798C334.206,97.798 333.525,98.046 333.023,98.486C332.521,98.927 332.239,99.524 332.239,100.147L332.239,116.601C332.239,117.224 332.521,117.822 333.023,118.262C333.525,118.703 334.206,118.95 334.916,118.95L352.832,118.95C353.542,118.95 354.223,118.703 354.725,118.262C355.227,117.822 355.509,117.224 355.509,116.601L355.509,100.147C355.509,99.524 355.227,98.927 354.725,98.486C354.223,98.046 353.542,97.798 352.832,97.798ZM385.011,230.9L368.025,230.9C367.191,230.9 366.392,231.19 365.803,231.707C365.214,232.224 364.883,232.926 364.883,233.657L364.883,249.295C364.883,250.027 365.214,250.728 365.803,251.245C366.392,251.762 367.191,252.052 368.025,252.052L385.011,252.052C385.844,252.052 386.643,251.762 387.233,251.245C387.822,250.728 388.153,250.027 388.153,249.295L388.153,233.657C388.153,232.926 387.822,232.224 387.233,231.707C386.643,231.19 385.844,230.9 385.011,230.9ZM319.724,230.9L302.738,230.9C301.904,230.9 301.105,231.19 300.516,231.707C299.927,232.224 299.595,232.926 299.595,233.657L299.595,249.295C299.595,250.027 299.927,250.728 300.516,251.245C301.105,251.762 301.904,252.052 302.738,252.052L319.724,252.052C320.557,252.052 321.356,251.762 321.945,251.245C322.535,250.728 322.866,250.027 322.866,249.295L322.866,233.657C322.866,232.926 322.535,232.224 321.945,231.707C321.356,231.19 320.557,230.9 319.724,230.9Z" style="fill:url(#_Linear1);"/>
            </g>
        </g>
    </g>
    <defs>
        <linearGradient id="_Linear1" x1="0" y1="0" x2="1" y2="0" gradientUnits="userSpaceOnUse" gradientTransform="matrix(-135.259484,136.780369,-146.108447,-126.624042,377.575615,138.193024)"><stop offset="0" style="stop-color:rgb(54,123,230);stop-opacity:1"/><stop offset="1" style="stop-color:rgb(0,70,176);stop-opacity:1"/></linearGradient>
    </defs>
</svg>
